<?xml version="1.0" encoding="utf-8"?>
<!-- Generator: Adobe Illustrator 16.0.4, SVG Export Plug-In . SVG Version: 6.00 Build 0)  -->
<!DOCTYPE svg PUBLIC "-//W3C//DTD SVG 1.1//EN" "http://www.w3.org/Graphics/SVG/1.1/DTD/svg11.dtd">
<svg version="1.1" id="Layer_1" xmlns="http://www.w3.org/2000/svg" xmlns:xlink="http://www.w3.org/1999/xlink" x="0px" y="0px"
	 width="24.018px" height="24.018px" viewBox="0 0 24.018 24.018" enable-background="new 0 0 24.018 24.018" xml:space="preserve">
<g>
	<path fill="#FFFFFF" d="M12.009,0C5.376,0,0,5.376,0,12.009s5.376,12.009,12.009,12.009c6.634,0,12.009-5.376,12.009-12.009
		S18.643,0,12.009,0z M12.009,23.057c-6.092,0-11.048-4.956-11.048-11.048S5.917,0.961,12.009,0.961s11.048,4.956,11.048,11.048
		S18.101,23.057,12.009,23.057z"/>
	<polygon fill="#FFFFFF" points="12.489,4.804 11.528,4.804 11.528,11.528 4.835,11.528 4.835,12.489 11.528,12.489 11.528,19.183 
		12.489,19.183 12.489,12.489 19.215,12.489 19.215,11.528 12.489,11.528 	"/>
</g>
</svg>
