<?xml version="1.0" encoding="utf-8"?>
<!-- Generator: Adobe Illustrator 16.0.4, SVG Export Plug-In . SVG Version: 6.00 Build 0)  -->
<!DOCTYPE svg PUBLIC "-//W3C//DTD SVG 1.1//EN" "http://www.w3.org/Graphics/SVG/1.1/DTD/svg11.dtd">
<svg version="1.1" id="Layer_1" xmlns="http://www.w3.org/2000/svg" xmlns:xlink="http://www.w3.org/1999/xlink" x="0px" y="0px"
	 width="19px" height="19px" viewBox="0 0 19 19" enable-background="new 0 0 19 19" xml:space="preserve">
<g opacity="0.6">
	<g>
		<path fill="none" stroke="#BDCCD4" stroke-miterlimit="10" d="M9.501,0.5c-4.97,0-9.001,4.029-9.001,9s4.031,9,9.001,9
			s9-4.029,9-9S14.471,0.5,9.501,0.5z"/>
	</g>
	<g>
		<path fill="#BDCCD4" d="M8.743,11.513C8.748,10.852,8.8,10.4,8.902,10.162c0.101-0.238,0.382-0.566,0.84-0.986
			c0.46-0.53,0.784-0.939,0.974-1.223C10.905,7.669,11,7.318,11,6.899c0-0.5-0.128-0.879-0.386-1.135
			c-0.257-0.257-0.633-0.386-1.128-0.386c-0.438,0-0.799,0.115-1.087,0.342C8.11,5.947,7.965,6.288,7.965,6.737H6.709
			c0.009-0.761,0.269-1.358,0.78-1.79C8,4.515,8.666,4.299,9.486,4.299c0.892,0,1.575,0.222,2.054,0.664
			c0.477,0.444,0.716,1.078,0.716,1.902c0,0.595-0.155,1.127-0.463,1.595c-0.309,0.468-0.732,0.963-1.273,1.486
			c-0.253,0.244-0.402,0.46-0.452,0.648c-0.049,0.19-0.074,0.495-0.074,0.918H8.743z M10.047,14.276H8.722v-1.371h1.325V14.276z"/>
	</g>
</g>
</svg>
