<?xml version="1.0" encoding="utf-8"?>
<!-- Generator: Adobe Illustrator 16.0.4, SVG Export Plug-In . SVG Version: 6.00 Build 0)  -->
<!DOCTYPE svg PUBLIC "-//W3C//DTD SVG 1.1//EN" "http://www.w3.org/Graphics/SVG/1.1/DTD/svg11.dtd">
<svg version="1.1" id="Layer_1" xmlns="http://www.w3.org/2000/svg" xmlns:xlink="http://www.w3.org/1999/xlink" x="0px" y="0px"
	 width="231.622px" height="40.617px" viewBox="0 0 231.622 40.617" enable-background="new 0 0 231.622 40.617"
	 xml:space="preserve">
<g>
	<g>
		<path fill="#47692A" d="M94.456,14.213c0-0.209-0.003-0.424-0.013-0.641s-0.014-0.432-0.014-0.641s0-0.381,0-0.521h-4.491v1.176
			v1.121h-0.366H81.24v5.068c0,0.053,0.005,0.104,0.015,0.156c0.008,0.053,0.013,0.104,0.013,0.156
			c-0.019,0.141-0.028,0.279-0.028,0.418v0.445c0,0.678,0.145,1.279,0.432,1.801c0.288,0.523,0.779,0.783,1.477,0.783h0.939h1.332
			h3.474h7.939c0.819,0,1.348,0.105,1.594,0.312c0.242,0.209,0.366,0.502,0.366,0.883v0.469v2.131c0,0.088,0,0.217,0,0.389
			c0,0.176-0.036,0.348-0.106,0.521c-0.069,0.174-0.191,0.326-0.365,0.455c-0.174,0.129-0.435,0.195-0.784,0.195l-11.125-0.027
			c-0.418,0-0.754-0.014-1.006-0.039c-0.252-0.025-0.448-0.1-0.588-0.223c-0.139-0.121-0.231-0.305-0.273-0.547
			c-0.044-0.244-0.066-0.584-0.066-1.02L82.73,27.01c-0.313,0-0.567-0.004-0.758-0.014c-0.191-0.008-0.338,0.014-0.443,0.066
			c-0.105,0.053-0.178,0.156-0.223,0.312c-0.043,0.156-0.066,0.391-0.066,0.705v2.43c0,0.486,0.005,0.896,0.015,1.227
			c0.008,0.332,0.046,0.496,0.116,0.496l16.873,0.027c1.515,0,2.715-0.408,3.604-1.227c0.94-0.832,1.41-1.998,1.41-3.49v-7.455
			l-17.603-0.025c-0.295,0-0.479-0.139-0.548-0.418c-0.069-0.277-0.104-0.584-0.104-0.914v-0.523h18.254v-3.5h-8.801
			C94.456,14.586,94.456,14.422,94.456,14.213z"/>
		<path fill="#47692A" d="M122.167,30.848"/>
		<path fill="#47692A" d="M116.892,27.74v-3.943v-5.641h5.928v-3.578h-5.852c-0.016-0.191-0.024-0.418-0.024-0.68
			c0-0.26,0-0.479,0-0.652c0-0.139,0-0.361,0-0.666s0.009-0.535,0.024-0.691h-2.375h-2.533c-0.017,0.086-0.023,0.309-0.013,0.666
			c0.008,0.357,0.013,0.727,0.013,1.109c0,0.174-0.009,0.357-0.025,0.549c-0.019,0.189-0.053,0.322-0.106,0.391h-5.537v3.553h7.261
			c-0.156,0.436-0.297,0.713-0.418,0.836c-0.191,0.139-0.383,0.27-0.574,0.393c-0.191,0.121-0.382,0.252-0.575,0.391v10.029
			c0,0.939-0.626,2.131-1.88,3.576l3.188,3.631c1.166-0.818,2.245-2.717,3.238-5.693c0.104-0.348,0.196-0.643,0.273-0.889"/>
		<rect x="124.411" y="9.119" fill="#47692A" width="4.414" height="4.021"/>
		<path fill="#47692A" d="M124.386,27.453c0,1.984,0.131,3.387,0.393,4.205c0.104,0.314,0.295,0.719,0.574,1.215
			c0.277,0.496,0.574,0.967,0.889,1.41c0.312,0.443,0.609,0.805,0.887,1.084c0.279,0.277,0.463,0.357,0.549,0.234l0.992-1.357
			l1.621-2.324c-0.35-0.227-0.602-0.365-0.758-0.418c-0.158-0.053-0.305-0.201-0.443-0.443c-0.141-0.279-0.211-1.498-0.211-3.658
			c0-1.078,0.008-2.393,0.027-3.943c0.018-1.549,0.025-3.352,0.025-5.404c0.191,0,0.447,0.004,0.771,0.012
			c0.32,0.008,0.699,0.014,1.135,0.014c0.697,0,1.07-0.025,1.123-0.078v-3.344h-7.574V27.453z"/>
		<path fill="#47692A" d="M150.661,18.156l-0.562-1.502c-0.129-0.305-0.291-0.605-0.482-0.9c-0.189-0.297-0.42-0.553-0.689-0.771
			s-0.596-0.326-0.979-0.326h-12.854v3.469h2.141v11.287h-2.117v2.848h6.166V18.078h4.127c0.59,0,0.947,0.078,1.07,0.234
			c0.104,0.225,0.273,0.646,0.51,1.264c0.234,0.617,0.525,1.43,0.873,2.438c0.35,0.973,0.684,1.943,1.008,2.908
			c0.32,0.965,0.648,1.924,0.979,2.881l1.541,4.43h2.848c0.295,0,0.582,0,0.861,0c0.277,0,0.434,0.01,0.471,0.027l-0.68-1.67
			L150.661,18.156z"/>
		<path fill="#47692A" d="M174.478,31.031c0.018,0.035,0.027,0.213,0.027,0.535c0,0.324,0,0.598,0,0.824
			c0,1.008-0.246,1.986-0.732,2.938c-0.488,0.949-1.158,1.666-2.01,2.154c0.156,0.26,0.316,0.523,0.482,0.783
			c0.166,0.262,0.336,0.523,0.51,0.783c0.469,0.732,0.764,1.254,0.887,1.568c0.244,0,0.562-0.148,0.953-0.443
			c0.393-0.299,0.785-0.645,1.178-1.047c0.391-0.4,0.748-0.809,1.068-1.227c0.324-0.418,0.537-0.75,0.641-0.992
			c0.244-0.627,0.443-1.154,0.602-1.58c0.156-0.428,0.281-0.807,0.379-1.137c0.094-0.33,0.162-0.645,0.195-0.939
			c0.035-0.297,0.051-0.609,0.051-0.941V18.129h1.045h2.09v-0.764v-2.578h-7.365V31.031z"/>
		<rect x="174.294" y="9.562" fill="#47692A" width="4.363" height="3.865"/>
		<path fill="#47692A" d="M186.569,19.879h-1.592v8.113c0,0.646,0.053,1.152,0.156,1.518c0.156,0.455,0.4,0.857,0.73,1.205
			c0.332,0.35,0.713,0.637,1.15,0.865c0.436,0.227,0.895,0.395,1.385,0.51c0.486,0.113,0.957,0.17,1.41,0.17h16.715v-5.145h-3.188
			c0,1.322-0.365,1.982-1.096,1.982h-11.336c-0.678,0-1.105-0.234-1.277-0.707c-0.176-0.473-0.262-1.137-0.262-1.992v-3.254h17.367
			v-3.266h-16.768H186.569z"/>
		<polygon fill="#47692A" points="198.167,12.254 193.728,12.254 193.728,14.604 185.056,14.604 185.056,17.895 206.733,17.895 
			206.733,14.562 198.167,14.562 		"/>
		<polygon fill="#47692A" points="223.056,14.562 223.056,12.254 218.616,12.254 218.616,14.604 209.944,14.604 209.944,17.895 
			231.622,17.895 231.622,14.562 		"/>
		<path fill="#47692A" d="M211.46,19.879h-1.594v8.113c0,0.646,0.053,1.152,0.156,1.518c0.158,0.455,0.4,0.857,0.732,1.205
			c0.33,0.35,0.713,0.637,1.148,0.865c0.436,0.227,0.896,0.395,1.385,0.51c0.486,0.113,0.957,0.17,1.41,0.17h16.715v-5.145h-3.186
			c0,1.322-0.367,1.982-1.098,1.982h-11.334c-0.68,0-1.107-0.234-1.279-0.707c-0.176-0.473-0.262-1.137-0.262-1.992v-3.254h17.367
			v-3.266h-16.768H211.46z"/>
	</g>
	<g>
		<path fill-rule="evenodd" clip-rule="evenodd" fill="#47692A" d="M23.718,23.322c-0.117,0.051-0.278,0.293-0.265,0.307
			c0.16,0.176,0.324,0.385,0.533,0.473c1.432,0.592,2.875,1.156,4.311,1.729C28.046,24.398,25.116,22.707,23.718,23.322z"/>
		<path fill-rule="evenodd" clip-rule="evenodd" fill="#47692A" d="M27.896,20.525c-0.622-0.031-1.478,0.113-1.855,0.525
			l2.149,0.555C28.69,21.074,28.547,20.559,27.896,20.525z"/>
		<path fill-rule="evenodd" clip-rule="evenodd" fill="#47692A" d="M28.405,29.264c0.032,0.375,0.489,0.717,0.759,1.072
			c0.167-1.678,0.734-2.158,2.207-1.703c0.732,0.227,1.387,0.705,2.151,1.109c0.366-0.592,0.242-1.203-0.413-1.578
			c-1.346-0.77-2.792-0.863-4.17-0.135C28.615,28.199,28.37,28.857,28.405,29.264z"/>
		<path fill-rule="evenodd" clip-rule="evenodd" fill="#47692A" d="M24.903,32.646c0,0,5.049,2.842,6.688,2.842
			c1.724,0,6.763-2.842,6.763-2.842s-5.08,0.605-6.763,0.605C29.911,33.252,24.903,32.646,24.903,32.646z"/>
		<path fill-rule="evenodd" clip-rule="evenodd" fill="#47692A" d="M67.735,17.896c-0.572-0.525-1.245-0.973-1.938-1.33
			c-2.545-1.312-5.107-2.545-7.653-3.857L37.455,0c0,0-1.152,0-1.705,0c-1.092,0.727-2.19,1.1-3.27,1.686l-8.375,4.381
			c-1.837,0.957-3.649,1.959-5.483,2.922c-5.508,2.885-11.031,5.74-16.521,8.656C1.361,18.037,0.776,18.719,0,19.365
			c1.858,1.283,3.603,1.959,5.438,2.104c3.294,0.26,6.603,0.312,9.908,0.41c0.791,0.023,1.327,0.164,1.21,1.066
			c-1.01,0.371-2.044,0.643-2.974,1.119c-1.344,0.688-2.09,2.406-1.565,3.453c0.82,1.631,1.943,2.953,3.817,3.459
			c0.323,0.088,0.753,0.361,0.839,0.639c0.483,1.541,1.562,2.578,2.875,3.322c1.997,1.133-0.806,3.879-0.806,3.879
			s10.23,1.035,13.059,1.537l12.454-1.178c-1.194-2.654-0.565-5.242,1.368-7.145c0.264-0.26,0.58-0.477,0.895-0.678
			c1.408-0.898,2.931-1.656,4.21-2.711c1.364-1.123,1.505-2.824,0.478-4.582c-0.687-1.178-1.943-1.133-3.152-0.91
			c-0.142,0.027-0.292,0.004-0.476,0.004c-0.011-0.998,0.612-0.969,1.27-0.998c4.603-0.207,9.209-0.348,13.8-0.707
			c1.643-0.131,3.307-0.65,4.844-1.277C68.615,19.713,68.641,18.727,67.735,17.896z M36.125,2.17l23.881,13.064
			c0,0-20.419-1.994-26.722-1.994c-6.106,0-22.914,1.994-22.914,1.994L36.125,2.17z M16.088,20.918
			c-4.41,0.031-8.79-0.223-13.046-1.42c-0.394-0.109-0.749-0.336-1.315-0.598c5.239-1.9,10.524-2.318,16.044-2.689
			c-0.349,1.488-0.621,2.779-0.976,4.051C16.72,20.529,16.333,20.916,16.088,20.918z M48.408,23.891
			c0.534-0.041,1.239,0.32,1.641,0.727c1.095,1.105,0.78,3.205-0.599,4.104c-0.988,0.646-2.083,1.125-3.1,1.729
			c-0.283,0.168-0.476,0.504-0.686,0.779c-3.15,4.16-7.218,6.936-12.486,7.166c-2.179,0.096-4.513-0.66-6.584-1.5
			c-2.344-0.953-4.536-2.34-6.675-3.719c-1.246-0.801-2.848-1.545-2.47-3.707c-0.741,1.107-1.481,0.662-2.077,0.178
			c-0.658-0.537-1.42-1.145-1.705-1.887c-0.309-0.805-0.479-2.057-0.055-2.641c0.474-0.656,1.665-0.836,2.581-1.092
			c0.188-0.055,0.662,0.418,0.782,0.734c0.198,0.516,0.214,1.1,0.475,1.666c1.053-1.557,1.107-3.369,1.426-5.08
			c0.331-1.773,0.407-3.596,0.628-5.713c8.601-0.289,17.323-0.037,26.076-0.332c0.259,3.621,0.457,6.363,0.686,9.557
			C47.144,24.438,47.759,23.941,48.408,23.891z M63.044,19.498c-4.508,1.197-9.148,1.451-13.819,1.42
			c-0.26-0.002-0.668-0.389-0.748-0.656c-0.377-1.271-0.665-2.562-1.034-4.051C53.289,16.582,58.888,17,64.438,18.9
			C63.838,19.162,63.461,19.389,63.044,19.498z"/>
		<path fill-rule="evenodd" clip-rule="evenodd" fill="#47692A" d="M38.81,23.898c-2.052,0.424-3.224,1.197-3.542,2.607
			c0.836-0.412,1.541-0.82,2.288-1.113c0.785-0.311,1.75-0.328,2.483-0.883C40.363,24.266,39.574,23.74,38.81,23.898z"/>
		<path fill-rule="evenodd" clip-rule="evenodd" fill="#47692A" d="M14.428,26.494c0.312,0.57,0.624,1.143,1.022,1.875
			c0.265-0.84,0.445-1.414,0.668-2.125c-0.344-0.018-0.883-0.047-1.424-0.072C14.605,26.277,14.516,26.387,14.428,26.494z"/>
		<path fill-rule="evenodd" clip-rule="evenodd" fill="#47692A" d="M38.315,21.369c-0.377-0.41-1.232-0.555-1.854-0.525
			c-0.65,0.033-0.795,0.549-0.295,1.082L38.315,21.369z"/>
		<path fill-rule="evenodd" clip-rule="evenodd" fill="#47692A" d="M49.151,26.393c-0.1-0.098-0.2-0.195-0.302-0.291
			c-0.533,0.088-1.067,0.176-1.406,0.232c0.302,0.682,0.545,1.232,0.901,2.037C48.659,27.6,48.905,26.996,49.151,26.393z"/>
	</g>
</g>
</svg>
