<?xml version="1.0" encoding="UTF-8" standalone="no"?>
<svg
   xmlns:dc="http://purl.org/dc/elements/1.1/"
   xmlns:cc="http://creativecommons.org/ns#"
   xmlns:rdf="http://www.w3.org/1999/02/22-rdf-syntax-ns#"
   xmlns:svg="http://www.w3.org/2000/svg"
   xmlns="http://www.w3.org/2000/svg"
   viewBox="0 0 178.16251 45.1875"
   height="45.1875"
   width="178.16251"
   xml:space="preserve"
   version="1.1"
   id="svg2"><metadata
     id="metadata8"><rdf:RDF><cc:Work
         rdf:about=""><dc:format>image/svg+xml</dc:format><dc:type
           rdf:resource="http://purl.org/dc/dcmitype/StillImage" /></cc:Work></rdf:RDF></metadata><defs
     id="defs6"><clipPath
       id="clipPath18"
       clipPathUnits="userSpaceOnUse"><path
         id="path20"
         d="m 0,0 1425,0 0,361.52 -1425,0 L 0,0 Z" /></clipPath></defs><g
     transform="matrix(1.25,0,0,-1.25,0,45.1875)"
     id="g10"><g
       transform="scale(0.1,0.1)"
       id="g12"><g
         id="g14"><g
           clip-path="url(#clipPath18)"
           id="g16"><path
             id="path22"
             style="fill:#293982;fill-opacity:1;fill-rule:nonzero;stroke:none"
             d="m 260.852,334.262 c -16.739,19.078 -47,27.258 -85.711,27.258 l -112.348,0 c -7.9219,0 -14.6524,-5.758 -15.8907,-13.571 L 0.121094,51.2617 C -0.808594,45.4102 3.72266,40.1094 9.65234,40.1094 l 69.35936,0 17.4219,110.4926 -0.543,-3.461 c 1.2422,7.808 7.9214,13.57 15.8324,13.57 l 32.961,0 c 64.75,0 115.449,26.301 130.257,102.379 0.442,2.25 0.821,4.441 1.153,6.582 -1.871,0.988 -1.871,0.988 0,0 4.41,28.117 -0.032,47.258 -15.242,64.59" /><path
             id="path24"
             style="fill:#469cdb;fill-opacity:1;fill-rule:nonzero;stroke:none"
             d="m 1109.98,193.074 c -4.24,-27.84 -25.5,-27.84 -46.07,-27.84 l -11.7,0 8.21,51.981 c 0.49,3.14 3.2,5.453 6.38,5.453 l 5.37,0 c 14,0 27.22,0 34.04,-7.973 4.08,-4.769 5.31,-11.847 3.77,-21.621 m -8.95,72.641 -77.56,0 c -5.31,0 -9.82,-3.86 -10.65,-9.098 L 981.457,57.7344 c -0.621,-3.918 2.418,-7.4688 6.379,-7.4688 l 39.804,0 c 3.71,0 6.87,2.6992 7.45,6.3594 l 8.9,56.391 c 0.82,5.242 5.34,9.101 10.64,9.101 l 24.54,0 c 51.09,0 80.58,24.719 88.28,73.731 3.47,21.418 0.14,38.257 -9.89,50.047 -11.03,12.96 -30.58,19.82 -56.53,19.82" /><path
             id="path26"
             style="fill:#293982;fill-opacity:1;fill-rule:nonzero;stroke:none"
             d="m 556.781,193.074 c -4.242,-27.84 -25.504,-27.84 -46.07,-27.84 l -11.703,0 8.211,51.981 c 0.492,3.14 3.199,5.453 6.379,5.453 l 5.371,0 c 14,0 27.219,0 34.043,-7.973 4.078,-4.769 5.308,-11.847 3.769,-21.621 m -8.953,72.641 -77.558,0 c -5.309,0 -9.821,-3.86 -10.649,-9.098 L 428.258,57.7344 c -0.617,-3.918 2.41,-7.4688 6.383,-7.4688 l 37.039,0 c 5.3,0 9.808,3.8594 10.64,9.0899 l 8.469,53.6605 c 0.82,5.242 5.34,9.101 10.641,9.101 l 24.539,0 c 51.09,0 80.582,24.719 88.281,73.731 3.469,21.418 0.141,38.257 -9.891,50.047 -11.031,12.96 -30.582,19.82 -56.531,19.82" /><path
             id="path28"
             style="fill:#293982;fill-opacity:1;fill-rule:nonzero;stroke:none"
             d="m 727.895,121.68 c -3.59,-21.223 -20.43,-35.473 -41.922,-35.473 -10.77,0 -19.399,3.4727 -24.942,10.0313 -5.488,6.4997 -7.558,15.7697 -5.816,26.0777 3.34,21.043 20.457,35.743 41.617,35.743 10.551,0 19.109,-3.5 24.762,-10.121 5.687,-6.668 7.929,-15.989 6.301,-26.258 m 51.757,72.289 -37.14,0 c -3.18,0 -5.891,-2.313 -6.391,-5.461 l -1.629,-10.379 -2.59,3.758 c -8.05,11.672 -25.98,15.582 -43.879,15.582 -41.031,0 -76.082,-31.102 -82.902,-74.711 -3.547,-21.762 1.492,-42.551 13.832,-57.0588 11.328,-13.332 27.5,-18.8828 46.77,-18.8828 33.078,0 51.422,21.2422 51.422,21.2422 l -1.661,-10.3203 c -0.621,-3.9219 2.411,-7.4688 6.387,-7.4688 l 33.441,0 c 5.309,0 9.821,3.8477 10.649,9.0899 l 20.082,127.1366 c 0.617,3.922 -2.422,7.473 -6.391,7.473" /><path
             id="path30"
             style="fill:#469cdb;fill-opacity:1;fill-rule:nonzero;stroke:none"
             d="m 1281.09,121.68 c -3.59,-21.223 -20.43,-35.473 -41.92,-35.473 -10.77,0 -19.4,3.4727 -24.94,10.0313 -5.5,6.4997 -7.56,15.7697 -5.82,26.0777 3.34,21.043 20.46,35.743 41.62,35.743 10.55,0 19.11,-3.5 24.76,-10.121 5.69,-6.668 7.93,-15.989 6.3,-26.258 m 51.76,72.289 -37.14,0 c -3.18,0 -5.89,-2.313 -6.39,-5.461 l -1.63,-10.379 -2.6,3.758 c -8.04,11.672 -25.97,15.582 -43.87,15.582 -41.03,0 -76.08,-31.102 -82.9,-74.711 -3.55,-21.762 1.49,-42.551 13.83,-57.0588 11.33,-13.332 27.5,-18.8828 46.77,-18.8828 33.08,0 51.42,21.2422 51.42,21.2422 l -1.66,-10.3203 c -0.62,-3.9219 2.41,-7.4688 6.39,-7.4688 l 33.44,0 c 5.31,0 9.82,3.8477 10.65,9.0899 l 20.08,127.1366 c 0.62,3.922 -2.42,7.473 -6.39,7.473" /><path
             id="path32"
             style="fill:#293982;fill-opacity:1;fill-rule:nonzero;stroke:none"
             d="m 977.461,193.969 -37.332,0 c -3.57,0 -6.91,-1.774 -8.91,-4.731 l -51.5,-75.84 -21.821,72.879 c -1.367,4.559 -5.57,7.692 -10.328,7.692 l -36.691,0 c -4.43,0 -7.551,-4.364 -6.117,-8.551 L 845.859,64.7578 807.199,10.207 C 804.172,5.92578 807.23,0.0078125 812.48,0.0078125 l 37.29,0 c 3.531,0 6.839,1.7304675 8.859,4.6289075 L 982.77,183.816 c 2.968,4.289 -0.09,10.153 -5.309,10.153" /><path
             id="path34"
             style="fill:#469cdb;fill-opacity:1;fill-rule:nonzero;stroke:none"
             d="M 1376.62,260.25 1344.79,57.7305 c -0.62,-3.918 2.41,-7.4688 6.38,-7.4688 l 32.02,0 c 5.3,0 9.82,3.8594 10.64,9.0977 l 31.39,198.8826 c 0.62,3.918 -2.41,7.469 -6.39,7.469 l -35.82,0 c -3.19,0 -5.9,-2.309 -6.39,-5.461" /><path
             id="path36"
             style="fill:#293982;fill-opacity:1;fill-rule:nonzero;stroke:none"
             d="m 260.852,334.262 c -16.739,19.078 -47,27.258 -85.711,27.258 l -112.348,0 c -7.9219,0 -14.6524,-5.758 -15.8907,-13.571 L 0.121094,51.2617 C -0.808594,45.4102 3.72266,40.1094 9.65234,40.1094 l 69.35936,0 17.4219,110.4926 -0.543,-3.461 c 1.2422,7.808 7.9214,13.57 15.8324,13.57 l 32.961,0 c 64.75,0 115.449,26.301 130.257,102.379 0.442,2.25 0.821,4.441 1.153,6.582 -1.871,0.988 -1.871,0.988 0,0 4.41,28.117 -0.032,47.258 -15.242,64.59" /><path
             id="path38"
             style="fill:#293982;fill-opacity:1;fill-rule:nonzero;stroke:none"
             d="m 115.152,269.297 c 0.743,4.699 3.762,8.551 7.821,10.5 1.851,0.879 3.91,1.371 6.07,1.371 l 88.078,0 c 10.434,0 20.16,-0.68 29.055,-2.109 2.547,-0.411 5.015,-0.883 7.418,-1.422 2.398,-0.532 4.73,-1.129 6.988,-1.789 1.133,-0.332 2.242,-0.672 3.332,-1.032 4.371,-1.461 8.438,-3.16 12.18,-5.148 4.41,28.129 -0.032,47.258 -15.242,64.59 -16.75,19.078 -46.997,27.258 -85.707,27.258 l -112.3638,0 c -7.9062,0 -14.6367,-5.758 -15.8789,-13.571 L 0.125,51.2656 C -0.804688,45.4062 3.72266,40.1172 9.64453,40.1172 l 69.36717,0 17.4219,110.4878 18.7184,118.692" /><path
             id="path40"
             style="fill:#469cdb;fill-opacity:1;fill-rule:nonzero;stroke:none"
             d="m 276.094,269.672 0,0 c -0.34,-2.152 -0.711,-4.332 -1.153,-6.582 C 260.133,187.02 209.434,160.711 144.684,160.711 l -32.969,0 c -7.91,0 -14.59,-5.762 -15.8205,-13.57 L 79.0117,40.1211 74.2227,9.76172 C 73.4141,4.64062 77.375,0 82.5547,0 l 58.4683,0 c 6.922,0 12.809,5.03906 13.891,11.8711 l 0.57,2.9805 11.02,69.8398 0.711,3.8594 c 1.078,6.8281 6.969,11.8712 13.887,11.8712 l 8.75,0 c 56.64,0 100.992,23.008 113.953,89.558 5.41,27.809 2.609,51.032 -11.703,67.34 -4.336,4.942 -9.727,9.02 -16.008,12.352" /><path
             id="path42"
             style="fill:#232d62;fill-opacity:1;fill-rule:nonzero;stroke:none"
             d="m 260.586,275.852 c -2.258,0.66 -4.59,1.257 -6.988,1.789 -2.403,0.531 -4.879,1 -7.422,1.41 -8.899,1.441 -18.617,2.121 -29.059,2.121 l -88.07,0 c -2.168,0 -4.231,-0.492 -6.07,-1.379 -4.071,-1.953 -7.082,-5.793 -7.821,-10.5 L 96.4375,150.602 95.8984,147.141 c 1.2305,7.808 7.9106,13.57 15.8206,13.57 l 32.969,0 c 64.75,0 115.449,26.301 130.257,102.379 0.442,2.25 0.813,4.43 1.153,6.582 -3.75,1.98 -7.813,3.687 -12.184,5.14 -1.086,0.36 -2.195,0.708 -3.328,1.04" /></g></g></g></g></svg>